Coordinates
version=1
nRows=19
nColumns=36
inDegrees=yes

Units are S.I. units (second, meters, Newtons, ...)
If the header above contains a line with 'inDegrees', this indicates whether rotational values are in degrees (yes) or radians (no).

endheader
time	pelvis_tilt	pelvis_list	pelvis_rotation	pelvis_tx	pelvis_ty	pelvis_tz	hip_flexion_r	hip_adduction_r	hip_rotation_r	knee_angle_r	knee_angle_r_beta	ankle_angle_r	subtalar_angle_r	mtp_angle_r	hip_flexion_l	hip_adduction_l	hip_rotation_l	knee_angle_l	knee_angle_l_beta	ankle_angle_l	subtalar_angle_l	mtp_angle_l	lumbar_extension	lumbar_bending	lumbar_rotation	arm_flex_r	arm_add_r	arm_rot_r	elbow_flex_r	pro_sup_r	arm_flex_l	arm_add_l	arm_rot_l	elbow_flex_l	pro_sup_l
      2.43333330	     -3.70478625	     -1.16240475	      2.14131833	      0.70903268	      0.89278846	      0.30719995	      4.98295091	     -2.75599936	      1.46263526	      1.10482348	      0.01928281	      3.66125750	     -7.48263234	     -7.49999987	      3.57303631	     -1.61013237	     -3.92147190	      0.94948817	      0.01657169	      5.32236877	     -5.28031671	     -7.49999987	      4.96918260	      0.36188218	      3.56558056	     45.18646073	      5.62176818	     64.95859511	    126.13589784	     91.40324915	     39.06449800	      5.42833814	     68.07668901	    127.18560760	     80.38401054
      2.45000000	     -3.67226289	     -1.09824779	      2.09041762	      0.70845458	      0.90086810	      0.30786383	      4.91440448	     -2.80708775	      1.53984510	      1.04819290	      0.01829442	      3.67776572	     -7.44396717	     -7.49999987	      3.53527646	     -1.56092412	     -4.04217712	      0.95686069	      0.01670037	      5.27912436	     -5.18312980	     -7.49999987	      4.80399050	      0.31140505	      3.50685030	     45.15962616	      5.81087525	     65.58567276	    126.06950871	     89.64111553	     39.08988852	      5.31139020	     68.34605865	    127.22250201	     78.96343065
      2.46666670	     -3.60970061	     -1.09579215	      2.09649705	      0.70856746	      0.89467557	      0.30737537	      4.84078021	     -2.81882918	      1.35247497	      1.03688735	      0.01809710	      3.85268703	     -7.14770698	     -7.49999987	      3.45462249	     -1.55446808	     -3.99665013	      0.97385765	      0.01699702	      5.38110216	     -5.26263645	     -7.49999987	      4.72317666	      0.34469925	      3.52107141	     45.23064894	      5.86445720	     65.65155415	    126.06463186	     88.22246443	     39.32388725	      5.33155292	     68.30170839	    127.40090221	     77.97787954
      2.48333330	     -3.65086390	     -1.11086379	      2.01467475	      0.70901618	      0.89328460	      0.30767046	      4.94072780	     -2.81428813	      1.41448128	      1.03273687	      0.01802466	      3.88511474	     -7.17676514	     -7.49999987	      3.53013194	     -1.57292764	     -4.12584008	      0.98989867	      0.01727699	      5.55825228	     -5.16008018	     -7.49999987	      4.77473120	      0.38765420	      3.68384777	     45.23088598	      5.82968980	     65.37691324	    126.14172707	     91.71910138	     39.31492269	      5.34782245	     68.24522194	    127.79969211	     80.12643893
      2.50000000	     -3.68307932	     -1.10969204	      1.99427352	      0.70920310	      0.89024817	      0.30731743	      4.97441096	     -2.82142261	      1.33058933	      1.07180373	      0.01870650	      3.92985074	     -7.14735644	     -7.49999987	      3.56657141	     -1.59481550	     -4.13481494	      1.00274756	      0.01750125	      5.66574167	     -5.15450318	     -7.49999987	      4.94654763	      0.40396722	      3.79455600	     45.41988296	      5.79662524	     65.07851751	    126.20575163	     91.71996606	     39.49275457	      5.41743394	     68.17674379	    128.13828617	     79.91161315
      2.51666670	     -3.71532186	     -1.12920309	      1.96611624	      0.70965980	      0.88904409	      0.30745162	      5.01578377	     -2.82869975	      1.31015914	      1.11011635	      0.01937519	      3.96495019	     -7.27158472	     -7.49999987	      3.62862254	     -1.61966556	     -4.15487941	      1.02842176	      0.01794935	      5.84499141	     -5.06805933	     -7.49999987	      5.11984774	      0.48673740	      3.78852108	     45.66854012	      5.86689237	     65.11771265	    126.33257267	     86.38584802	     39.65997134	      5.40602363	     68.22622335	    128.58868214	     76.07212250
      2.53333330	     -3.81005851	     -1.12393944	      2.02964901	      0.70894572	      0.89588838	      0.30746517	      5.10436637	     -2.87080948	      0.96529167	      1.14408833	      0.01996811	      4.00228050	     -6.85562498	     -7.49999987	      3.75874170	     -1.60939838	     -3.82443833	      1.02031885	      0.01780792	      5.51660077	     -5.74732530	     -7.49999987	      5.16841690	      0.46033033	      3.55780021	     45.66135816	      5.91290960	     65.14209043	    126.28879770	     84.74906118	     39.60373808	      5.30062944	     68.45335285	    128.82343717	     74.90251065
      2.55000000	     -3.96422036	     -1.09033950	      1.92062537	      0.70958481	      0.89191566	      0.30772805	      5.30681781	     -2.93177434	      1.24660286	      1.14403767	      0.01996722	      3.87996714	     -7.19239102	     -7.49999987	      3.92328188	     -1.58100737	     -3.99046535	      1.05203743	      0.01836152	      5.69304396	     -5.56251671	     -7.49999987	      5.28501381	      0.45424678	      3.62846051	     45.51953268	      6.03365216	     64.57291574	    126.10993622	     91.93658047	     39.66364114	      5.28697481	     68.15161470	    128.75405593	     79.66031601
      2.56666670	     -4.00337116	     -1.06472802	      1.93871370	      0.70839372	      0.90059090	      0.30770677	      5.34806208	     -2.95515622	      1.27231848	      1.11091056	      0.01938905	      3.65613551	     -7.25600956	     -7.49999987	      3.95654746	     -1.55233586	     -4.01329447	      1.01933991	      0.01779084	      5.46483135	     -5.52696829	     -7.49999987	      5.12422977	      0.40809871	      3.64758692	     45.40711718	      5.72758923	     64.66563196	    125.94767143	     90.16389249	     39.52726408	      5.17294873	     68.47433822	    128.82468267	     78.58378372
      2.58333330	     -4.00650272	     -1.03513731	      1.92213717	      0.70849327	      0.90088436	      0.30794472	      5.39970893	     -2.99033435	      1.23903136	      1.07953887	      0.01884151	      3.62838786	     -7.09633305	     -7.49999987	      3.94982039	     -1.50024665	     -3.98656893	      1.02152352	      0.01782895	      5.23199081	     -5.71875816	     -7.49999987	      4.93930930	      0.39313754	      3.70109521	     45.15369158	      5.57246473	     64.63235720	    125.75537129	     91.72060198	     39.19445997	      4.93188074	     68.50511491	    128.60863806	     79.62182400
      2.60000000	     -3.97200809	     -0.98616636	      1.98572852	      0.70858712	      0.90001108	      0.30781158	      5.36170220	     -3.04207136	      1.06798543	      0.99296805	      0.01733056	      3.52857595	     -6.81286387	     -7.49999987	      3.93448389	     -1.44747704	     -4.10844150	      0.99352598	      0.01734030	      5.02244396	     -5.47484450	     -7.49999987	      4.70919544	      0.29907857	      3.53800645	     45.06301926	      5.43541123	     64.66533598	    125.63065262	     91.87628360	     39.00660461	      4.77185671	     68.54393274	    128.29035994	     80.18055219
      2.61666670	     -3.97031490	     -0.99300549	      2.09683920	      0.70895853	      0.89532739	      0.30784871	      5.41400075	     -3.04222644	      0.94922557	      1.01512394	      0.01771726	      3.40396860	     -6.85491660	     -7.49999987	      3.95345683	     -1.43063992	     -4.07420558	      0.95751929	      0.01671186	      4.93130439	     -5.54145644	     -7.49999987	      4.64459077	      0.28407938	      3.43529119	     45.08455040	      5.37323426	     64.61188803	    125.55093632	     90.88683404	     38.86400052	      4.59547046	     68.52102705	    128.09727646	     79.79105341
      2.63333330	     -3.99261385	     -0.94297745	      2.19195040	      0.70927317	      0.89213519	      0.30748707	      5.47723762	     -3.10651308	      0.81764423	      1.06960485	      0.01866813	      3.39447802	     -6.87685790	     -7.49999987	      4.00067300	     -1.36968872	     -4.31143337	      0.93133045	      0.01625478	      5.00022030	     -5.22045677	     -7.49999987	      4.64132742	      0.16724995	      3.38923231	     44.89345670	      5.41892906	     64.21521519	    125.59677114	     91.69128986	     38.86858196	      4.56171585	     68.35402622	    127.99163804	     79.95695434
      2.65000000	     -3.99899990	     -0.91609817	      2.35475455	      0.70922561	      0.89307697	      0.30751868	      5.49378226	     -3.16872487	      0.51663036	      1.14692497	      0.02001762	      3.49733400	     -6.75359872	     -7.49999987	      4.08070041	     -1.33399743	     -4.18460872	      0.92128810	      0.01607951	      4.75340412	     -5.49803235	     -7.49999987	      4.59210162	      0.08832146	      3.25266065	     44.90107797	      5.43403155	     63.98034420	    125.70031461	     91.54574849	     38.84462764	      4.48961165	     68.27162649	    127.93935093	     79.95001457
      2.66666670	     -4.01360178	     -0.93807686	      2.44070149	      0.70581299	      0.89193908	      0.31013401	      5.56046136	     -3.13800731	      0.47637516	      1.19929495	      0.02093165	      3.51540219	     -6.78631725	     -7.49999987	      4.20011303	     -1.37386616	     -4.23753847	      0.92024201	      0.01606125	      4.75753243	     -5.51151651	     -7.49999987	      4.45391906	      0.01035760	      3.29387376	     44.95603857	      5.44610914	     63.93639464	    125.69010031	     91.54159032	     38.86583497	      4.41761784	     68.24931865	    127.91732856	     79.95054417
      2.68333330	     -4.03031236	     -0.86221946	      2.64536165	      0.70561419	      0.89528144	      0.31031788	      5.75656759	     -3.21024735	      0.30328482	      1.52674422	      0.02664671	      3.59575032	     -7.05811247	     -7.49999987	      4.43331803	     -1.32246391	     -4.28173052	      1.11400686	      0.01944309	      4.61293115	     -5.37329099	     -7.49999987	      4.22003768	     -0.18482758	      3.19979194	     44.96119266	      5.42209495	     63.83468119	    125.49990583	     91.43189413	     38.89760023	      4.14614755	     68.43462697	    127.84630296	     79.75405228
      2.70000000	     -4.03646684	     -0.84980212	      2.76958246	      0.70711224	      0.88528368	      0.30971190	      6.08079772	     -3.22231847	      0.26278532	      2.11605689	      0.03693216	      3.79839986	     -7.55072557	     -7.49999987	      4.66468716	     -1.32585261	     -4.38816330	      1.45746284	      0.02543753	      4.92036244	     -5.39130991	     -7.49999987	      4.09145397	     -0.26628738	      3.08444142	     45.05013660	      5.43840558	     63.65261770	    125.60192714	     88.58692212	     39.13342159	      3.99509540	     68.28405239	    128.03564867	     77.91988850
      2.71666670	     -3.97148143	     -0.81106115	      3.05294803	      0.70244564	      0.88850175	      0.30732604	      6.49236108	     -3.30219580	     -0.01072118	      3.04614114	      0.05316519	      4.00391893	     -7.92502991	     -7.49999987	      5.05055251	     -1.29662303	     -4.34463703	      2.04989336	      0.03577739	      4.99219761	     -5.58942995	     -7.49999987	      3.69221980	     -0.36414197	      2.92372083	     45.13992607	      5.15487746	     63.67748954	    125.38438758	     88.74089632	     39.32221578	      4.14732925	     68.28928710	    127.96742380	     78.00539343
      2.73333330	     -4.27707117	     -0.75966380	      3.31256511	      0.69778542	      0.88957981	      0.30440372	      7.69675300	     -3.50025086	     -0.09993960	      4.54546412	      0.07933332	      4.27093172	     -8.59147804	     -7.49999987	      6.09068630	     -1.22481291	     -4.20712822	      3.14947795	      0.05496876	      5.14967144	     -6.02809983	     -7.49999987	      3.63368486	     -0.42284463	      2.68119704	     45.27397246	      4.82485552	     64.11248582	    125.30783340	     89.18878208	     39.61851506	      4.35538313	     68.51502424	    127.67840832	     78.21647638
